<svg xmlns="http://www.w3.org/2000/svg" xmlns:xlink="http://www.w3.org/1999/xlink" viewBox="0 0 98.97 57.97" fill="#fff" fill-rule="evenodd" stroke="#000" stroke-linecap="round" stroke-linejoin="round"><use xlink:href="#A" x="6.485" y="6.485"/><symbol id="A" overflow="visible"><g stroke="none"><path d="M0 40.295h2.815V29.14l4.4 9.728c.493 1.167 1.206 1.595 2.594 1.595s2.05-.428 2.568-1.595l4.37-9.728v11.154h2.828V29.14c.12-.88-.464-1.704-1.336-1.88-2.14-.648-3.567-.09-4.215 1.362L9.728 38.22l-4.15-9.598c-.623-1.453-2.075-2-4.24-1.362-.882.285-1.323.804-1.323 1.88v11.154zm21.92-9.08h2.828v6.122c-.026.35.104 1.128 1.647 1.14h6.148v-7.302h2.827V41.2c0 2.464-3.048 3.01-4.475 3.022h-8.91v-1.88h8.95c1.816-.195 1.595-1.102 1.595-1.4v-.74h-5.992c-2.79-.026-4.59-1.258-4.604-2.66v-6.317zm60.778-7.095a9.99 9.99 0 0 0-4.202.61c-.324.13-.843.13-.882.545.17.17.195.454.35.687a5.06 5.06 0 0 0 1.128 1.323l1.388 1c.843.52 1.8.817 2.62 1.336a9 9 0 0 1 1.297 1.012c.26.17.39.454.687.558v-.065c-.156-.195-.195-.48-.35-.687l-.648-.622c-.632-.837-1.39-1.572-2.244-2.18-.687-.48-2.205-1.128-2.5-1.92l-.04-.04c.48-.04 1.038-.22 1.492-.35.74-.195 1.4-.156 2.166-.35l1.038-.298v-.195c-.39-.39-.674-.908-1.077-1.27-1.102-.947-2.31-1.88-3.567-2.66-.675-.428-1.53-.713-2.244-1.077-.26-.13-.687-.194-.843-.415-.39-.48-.6-1.102-.882-1.66l-1.777-3.76c-.39-.843-.623-1.686-1.103-2.464a21.79 21.79 0 0 0-8.366-8.093c-.7-.467-1.66-.66-2.672-.895l-1.62-.09c-.35-.156-.687-.558-1-.752-1.232-.778-4.4-2.464-5.188-.233-.584 1.4.87 2.79 1.362 3.502.363.493.843 1.064 1.102 1.62l.35 1.14 1.128 2.905.804 1.336c.17.233.48.35.545.74-.298.428-.324 1.076-.493 1.62-.778 2.438-.48 5.473.623 7.263.35.545 1.297 1.725 2.27 1.27.973-.39.752-1.62 1.038-2.698.065-.26.026-.428.156-.6v.04l.882 1.8c.674 1.064 1.842 2.166 2.814 2.905.52.39.934 1.064 1.582 1.297v-.065h-.04c-.13-.195-.324-.285-.493-.428-.41-.4-.788-.835-1.128-1.297a27.89 27.89 0 0 1-2.425-3.93c-.35-.674-.648-1.4-.934-2.075-.13-.26-.13-.65-.35-.778-.324.48-.804.882-1.038 1.466-.415.934-.454 2.075-.61 3.27-.778-.13-1.012-.843-1.27-1.453-.65-1.53-.752-4.02-.195-5.772.156-.454.804-1.88.545-2.31-.13-.415-.558-.65-.804-.973-.285-.415-.584-.934-.778-1.388-.52-1.206-.778-2.555-1.336-3.76L55.733 4.07c-.415-.584-.843-1-1.193-1.686-.104-.26-.246-.65-.078-.908.17-.156.13-.22.17-.26.285-.233 1.076.065 1.362.195.804.324 1.466.623 2.14 1.077.298.22.623.623 1.012.74h.454c.687.156 1.466.04 2.114.233a13.88 13.88 0 0 1 3.113 1.492c2.862 1.825 5.19 4.376 6.745 7.393.26.493.363.947.6 1.466l1.466 3.178c.454 1.012.882 2.05 1.53 2.905.324.454 1.62.687 2.205.934.428.195 1.103.363 1.492.6l2.166 1.466c.35.26 1.297.804 1.492 1.232zM60.65 5.314c-.298 0-.597.04-.882.104v.078h.04c.17.35.48.584.687.882l.493 1.038.04-.04c.298-.22.454-.558.454-1.077-.13-.156-.156-.298-.26-.454-.13-.22-.415-.35-.584-.506z" fill="#00678c"/><path d="M37.5 40.295h8.132c.947 0 1.855-.195 2.594-.545 1.232-.558 1.816-1.323 1.816-2.31v-2.075c0-.804-.675-1.556-2-2.075-.687-.26-1.556-.415-2.4-.415h-3.424c-1.14 0-1.686-.35-1.842-1.102-.026-.09-.026-.17-.026-.26v-1.27c.17-.817.48-.973 1.48-1.077h8.327v-1.88h-7.782c-1.14 0-1.75.065-2.296.233-1.66.52-2.4 1.336-2.4 2.79v1.647c0 1.27 1.297 2.36 3.852 2.62.26.026.545.026.817.026h2.918c.104 0 .22 0 .298.026.882.09 1.27.233 1.53.558a.67.67 0 0 1 .221.519v1.647c0 .195-.13.454-.39.675s-.675.363-1.206.39c-.104 0-.17.026-.285.026H37.5zm30.156-3.268c0 1.92 1.453 3.01 4.345 3.217l.817.04h7.354V38.4H72.79c-1.647 0-2.27-.415-2.27-1.4v-9.728h-2.853v9.754zm-15.824.09V30.4c0-1.712 1.206-2.75 3.567-3.074l.752-.04h5.37l.804.04c2.36.324 3.54 1.362 3.54 3.074v6.706c0 1.388-.493 2.114-1.66 2.62l2.763 2.503H63.7l-2.244-2.036-2.27.13h-3.01c-.556-.004-1.1-.078-1.647-.22-1.8-.493-2.685-1.453-2.685-3.01zm3.048-.156c0 .09.052.17.065.285.156.778.882 1.206 2 1.206h2.555l-2.335-2.114h3.268l2.05 1.855c.39-.22.623-.52.713-.908.026-.09.026-.195.026-.285v-6.42c0-.09 0-.17-.026-.26-.156-.74-.882-1.14-1.984-1.14h-4.28c-1.258 0-2.075.545-2.075 1.4z" fill="#ce8b2c"/></g></symbol></svg>