<?xml version="1.0" encoding="UTF-8"?>
<svg width="700px" height="579px" viewBox="0 0 700 579" version="1.1" xmlns="http://www.w3.org/2000/svg" xmlns:xlink="http://www.w3.org/1999/xlink">
    <!-- Generator: Sketch 60.1 (88133) - https://sketch.com -->
    <title>Meeting #2</title>
    <desc>Created with Sketch.</desc>
    <g id="Illustration-kit" stroke="none" stroke-width="1" fill="none" fill-rule="evenodd">
        <g id="Illustration" transform="translate(-496.000000, -6572.000000)">
            <g id="Meeting" transform="translate(496.000000, 6571.000000)">
                <g>
                    <g id="Man" transform="translate(229.151369, 1.055226)">
                        <path d="M79.0865713,320.093424 C79.0865713,320.093424 54.7175085,341.736226 46.8687919,368.196187 C39.0189465,394.655019 101.746594,534.981167 101.746594,534.981167 L115.96188,529.862724 L93.0941542,376.605058 L163.197541,356.293774 L161.426415,527.737938 L177.917412,527.737938 L206.267839,372.844086 L285.290067,375.42249 L276.254956,304.982957 L79.0865713,320.093424" id="Shape" fill="#00A650"></path>
                        <path d="M307.862042,304.951362 C307.862042,304.951362 303.911156,143.025292 267.22436,126.099222 C253.312728,119.680856 240.360595,114.853541 229.631119,111.329533 C226.376718,129.421245 150.305236,131.165759 152.168926,110.31284 C139.86361,115.892802 126.166454,125.848716 118.219529,143.589494 C101.287162,181.391051 75.3241993,247.887938 75.3241993,247.887938 L40.8950528,150.359922 L25.0915101,158.822957 C25.0915101,158.822957 45.0344522,304.959261 79.0865713,304.959261 C113.139819,304.959261 136.845133,261.73572 136.845133,261.73572 L136.845133,304.951362 L307.862042,304.951362" id="Shape" fill="#E73A5E"></path>
                        <path d="M192.721945,146.410506 C214.078175,144.702101 226.376718,129.421245 229.631119,111.329533 C225.991789,110.134553 222.606444,109.088521 219.529269,108.182412 C217.145191,115.39856 161.443347,113.834591 160.933119,106.921984 C158.169757,107.817938 155.211108,108.93393 152.168926,110.31284 C150.305236,131.165759 171.979795,146.410506 192.721945,146.410506" id="Shape" fill="#FFFFFE"></path>
                        <polyline id="Shape" fill="#CC395D" points="262.709062 200.912451 268.353185 292.90677 280.205842 292.90677 262.709062 200.912451"></polyline>
                        <path d="M214.631299,106.782062 C208.252312,105.013852 203.615101,99.5151362 202.989732,92.9275097 L200.577434,67.5000389 L196.246135,26.7996109 L174.660753,24.8249027 C174.660753,24.8249027 162.243684,25.4568093 162.243684,37.5533074 C162.243684,49.6498054 158.010592,79.6574708 164.501333,82.9907782 C170.992074,86.3229572 171.958347,86.0701946 171.958347,86.0701946 L174.255505,103.751167 C171.137692,104.22284 166.418077,105.145875 160.933119,106.923113 C160.126009,144.440311 218.722159,145.699611 219.529269,108.182412 C217.795394,107.672374 216.159728,107.206342 214.631299,106.782062" id="Shape" fill="#F9B6A8"></path>
                        <path d="M196.245006,26.7996109 C197.263206,17.7577043 189.781357,14.7945136 180.304876,13.2587549 C180.304876,13.2587549 178.611639,3.94941634 172.698856,1.12840467 C166.787203,-1.692607 154.341913,0.282101167 157.222673,17.7723735 C160.103433,35.2626459 196.245006,26.7996109 196.245006,26.7996109 C196.245006,26.7996109 187.077823,27.3638132 188.206647,41.4688716 C189.335471,55.57393 189.899884,62.1592996 189.899884,62.1592996 L196.377079,70.0682879 L201.188128,70.0682879 C204.129845,50.0142802 207.871898,28.9774319 196.245006,26.7996109" id="Shape" fill="#FB9300"></path>
                        <path d="M189.650414,62.4380156 C189.650414,62.4380156 197.317389,54.0799222 199.958839,57.7889883 C202.599159,61.4980545 193.910597,69.4284825 193.910597,69.4284825" id="Shape" fill="#F9B6A8"></path>
                        <path d="M165.429227,67.812607 L172.766586,67.812607 C172.766586,67.812607 173.613204,53.0045525 170.791143,52.3297665 C167.969082,51.6549805 165.429227,67.812607 165.429227,67.812607" id="Shape" fill="#CC395D"></path>
                        <path d="M190.975653,66.7936576 C190.813103,66.7936576 190.65281,66.7248249 190.542185,66.5905447 C190.342383,66.351323 190.37399,65.9958755 190.613301,65.7961479 L197.685386,59.8923346 C197.924697,59.6937354 198.280277,59.7253307 198.480079,59.9645525 C198.67988,60.2037743 198.648273,60.5592218 198.407834,60.7589494 L191.336877,66.6627626 C191.231897,66.7507782 191.103211,66.7936576 190.975653,66.7936576" id="Shape" fill="#CC395D"></path>
                        <path d="M182.763455,51.9968872 C182.763455,50.7432296 181.746385,49.726537 180.492261,49.726537 C179.238137,49.726537 178.221066,50.7432296 178.221066,51.9968872 C178.221066,53.2505447 179.238137,54.2672374 180.492261,54.2672374 C181.746385,54.2672374 182.763455,53.2505447 182.763455,51.9968872" id="Shape" fill="#3A3B39"></path>
                        <path d="M165.429227,51.7350973 C165.429227,50.4814397 164.412156,49.4647471 163.158032,49.4647471 C161.903908,49.4647471 160.886837,50.4814397 160.886837,51.7350973 C160.886837,52.9887549 161.903908,54.0054475 163.158032,54.0054475 C164.412156,54.0054475 165.429227,52.9887549 165.429227,51.7350973" id="Shape" fill="#3A3B39"></path>
                        <path d="M160.886837,46.1449805 C160.744605,46.1449805 160.601244,46.1088716 160.468043,46.0343969 C160.062795,45.8030739 159.920563,45.2862646 160.151972,44.8800389 C160.886837,43.5902724 162.113869,42.7428405 163.520385,42.5555253 C164.827563,42.3828794 166.104264,42.8173152 167.031029,43.7493774 C167.360645,44.08 167.359517,44.6171206 167.027642,44.9466148 C166.695768,45.2749805 166.159576,45.2738521 165.829959,44.9432296 C165.271191,44.381284 164.528425,44.1285214 163.743892,44.233463 C162.866795,44.3508171 162.09355,44.891323 161.622831,45.7173152 C161.467053,45.9915175 161.18146,46.1449805 160.886837,46.1449805" id="Shape" fill="#3A3B39"></path>
                        <path d="M184.542483,45.9779767 C184.325748,45.9779767 184.109014,45.8956031 183.943077,45.7297276 C182.182111,43.9660311 179.112837,43.7301946 177.102401,45.2072763 C176.725373,45.4837354 176.194826,45.4024903 175.918264,45.0256031 C175.641702,44.6498444 175.722977,44.1194942 176.100004,43.843035 C178.757257,41.8920233 182.814252,42.2023346 185.141889,44.5336187 C185.471505,44.8642412 185.471505,45.4002335 185.14076,45.730856 C184.974823,45.8956031 184.759217,45.9779767 184.542483,45.9779767" id="Shape" fill="#3A3B39"></path>
                        <polyline id="Shape" fill="#CC395D" points="171.957219 86.0701946 182.763455 87.733463 172.294737 90.5623735 171.957219 86.0701946"></polyline>
                        <polyline id="Shape" fill="#CC395D" points="174.254376 103.750039 175.036652 111.994163 170.7268 104.37179 174.254376 103.750039"></polyline>
                        <polyline id="Shape" fill="#CC395D" points="75.3241993 247.887938 86.6124441 268.653969 80.9683217 233.566226 75.3241993 247.887938"></polyline>
                        <path d="M40.9229254,150.714267 L36.9720397,136.052905 C36.9720397,136.052905 47.6958722,128.998119 46.8492539,127.021154 C46.0026355,125.043061 32.8326403,131.813489 32.8326403,131.813489 C32.8326403,131.813489 23.1439399,110.115395 21.168497,110.667185 C19.1930542,111.220103 26.8126194,130.686212 26.8126194,130.686212 C26.8126194,130.686212 12.1379012,114.605317 10.4446645,115.733722 C8.75142778,116.862127 20.6040848,132.941893 20.6040848,132.941893 C20.6040848,132.941893 1.6962748,122.786251 1.41406868,124.196757 C1.13186256,125.607263 16.0887869,136.052905 16.0887869,136.052905 C16.0887869,136.052905 0.285244206,131.813489 0.00303808668,133.788197 C-0.279168032,135.762905 19.1930542,144.22594 19.1930542,144.22594 L25.1193827,159.177302 L40.9229254,150.714267" id="Shape" fill="#F9B6A8"></path>
                        <path d="M168.429642,75.3650195 C167.630434,75.3650195 166.810908,75.3300389 165.971062,75.2612062 C165.659507,75.2352529 165.429227,74.9633074 165.454061,74.6529961 C165.481153,74.3415564 165.759972,74.1192607 166.063626,74.1361868 C169.147575,74.393463 171.914323,74.1632685 174.523037,73.4377043 C174.823304,73.3564591 175.133731,73.5302335 175.218393,73.8303891 C175.300797,74.1305447 175.125829,74.440856 174.825562,74.524358 C172.801579,75.0863035 170.691806,75.3650195 168.429642,75.3650195" id="Shape" fill="#CC395D"></path>
                        <polyline id="Shape" fill="#CC395D" points="32.539494 130.960389 33.0700415 131.95677 21.4047694 138.162996 20.8742219 137.166615 32.539494 130.960389"></polyline>
                        <polyline id="Shape" fill="#3A3B39" points="101.746594 534.980039 108.05898 549.692179 96.2063233 559.145953 119.53461 552.848327 115.960752 529.862724 101.746594 534.980039"></polyline>
                        <polyline id="Shape" fill="#3A3B39" points="161.426415 527.737938 161.426415 544.147198 152.084264 551.128638 173.026215 549.693307 177.917412 527.737938 161.426415 527.737938"></polyline>
                    </g>
                    <g id="Chair" transform="translate(0.000000, 212.107521)">
                        <path d="M26.5747855,85.4360311 C26.5747855,85.4360311 31.3869642,200.581829 77.5818483,205.046926" id="Shape" fill="#3A3B39"></path>
                        <path d="M111.27613,209.956615 L111.2767,324.219419 C117.71169,323.7796 123.607283,323.828846 127.432995,324.43214 C131.551149,325.081403 136.481485,327.171733 137.631304,330.554011 C144.502191,332.612132 157.840901,335.892755 159.925079,340.047004 C161.884718,343.952412 160.123752,349.570739 155.991125,350.993658 C151.770451,352.447043 146.743795,348.278716 147.393998,343.863268 C147.828595,340.907977 150.667589,338.798988 153.584471,338.504475 L137.241724,334.49568 C135.679599,337.28268 131.551686,338.448527 128.052719,338.996459 C120.093714,340.242463 112.058834,341.258843 104.010911,341.637349 L102.578538,346.573696 C104.371111,344.91607 106.381547,344.846109 108.035275,345.682257 C110.485953,346.921245 112.155484,350.148482 111.183566,353.152296 C108.522927,361.376109 98.6829642,356.680817 97.7031446,350.290661 C97.6047086,349.64927 98.2316153,345.011292 99.0252377,341.784574 C95.4901976,341.829519 91.9556795,341.733209 88.426465,341.463152 C85.3402589,341.227315 81.9853926,341.036615 79.5392299,339.214241 C77.802887,337.920436 76.9402774,336.691972 76.7937381,335.535545 L64.6929304,338.504475 C67.6098129,338.798988 70.4488064,340.907977 70.8834038,343.863268 C71.5336067,348.278716 66.5069513,352.447043 62.2862766,350.993658 C58.1536502,349.570739 56.392684,343.952412 58.3523233,340.047004 C60.520696,335.724934 74.8712726,332.348501 81.4475919,330.310876 C82.403998,329.843533 83.4841353,329.398591 84.6647945,328.977484 L84.7261784,328.864514 C84.7195543,328.899011 84.7018391,328.934688 84.6734936,328.971536 C89.67088,327.1921 96.4821753,325.835381 103.373983,324.980244 L103.374359,209.956615 L111.27613,209.956615 Z" id="Combined-Shape" fill="#3A3B39"></path>
                        <path d="M76.7713523,180.036965 C76.7713523,180.036965 46.7276889,216.330973 96.5833507,219.716187 C146.440141,223.101401 196.108418,180.036965 196.108418,180.036965 L76.7713523,180.036965" id="Shape" fill="#585755"></path>
                        <path d="M43.7848435,0 C28.6834296,0.912879377 15.0246534,10.1736965 7.64552784,22.3063035 C0.266402234,34.4377821 -1.32862675,49.0382101 0.979819304,62.7708949 C3.10200932,75.3954864 8.61518806,87.8417899 18.4732122,96.8554864 C28.3312364,105.869183 42.8998451,110.986498 56.5123394,108.348288 L43.7848435,0" id="Shape" fill="#585755"></path>
                    </g>
                    <g id="Woman" transform="translate(26.574693, 31.200133)">
                        <path d="M192.862012,528.286766 L233.499693,433.637311 L255.323257,343.716999 L174.80082,343.716999 L213.180853,294.137155 C213.180853,294.137155 332.206363,277.836221 327.630109,332.295287 C323.052725,386.753225 229.737321,484.155988 213.180853,516.601007 L233.499693,528.286766 L192.862012,528.286766" id="Shape" fill="#F7A8A2"></path>
                        <path d="M171.038448,381.440696 L228.232598,371.28054 L144.68717,542.802564 L181.854845,542.802564 L165.018428,529.001046 C165.018428,529.001046 308.926616,381.064937 295.67083,346.460151 C282.416173,311.855365 261.720305,305.084937 200.387885,313.360657 L171.038448,381.440696" id="Shape" fill="#F9B6A8"></path>
                        <path d="M42.4416353,371.506221 C42.4416353,371.506221 79.2277673,407.394003 171.038448,381.440696 L235.381444,285.237427 L93.3606498,285.237427 L42.4416353,371.506221" id="Shape" fill="#FB9300"></path>
                        <path d="M148.08606,163.094392 L160.50313,221.206104 L255.324386,221.206104 L254.718207,234.654431 C254.718207,234.654431 133.035444,253.581163 123.063408,248.952447 C113.092502,244.322602 111.963677,168.957583 108.577204,166.872291 C105.19073,164.786999 148.08606,163.094392 148.08606,163.094392" id="Shape" fill="#F9B6A8"></path>
                        <polyline id="Shape" fill="#FFFFFE" points="144.68717 149.365093 148.084932 163.094392 119.86432 170.767544 114.220197 157.452369 144.68717 149.365093"></polyline>
                        <path d="M70.0086578,87.8670383 C70.0086578,87.8670383 28.4306659,92.0048982 9.24064977,164.222797 C-9.94936634,236.440696 0.575793083,328.062641 42.4416353,371.506221 L106.319555,284.509606 L139.055465,284.509606 L126.638395,192.997116 C126.638395,192.997116 137.92664,179.267816 128.896044,154.25447 L144.68717,149.365093 C144.68717,149.365093 139.055465,100.655248 120.429861,95.2016686 L70.0086578,87.8670383" id="Shape" fill="#53AF02"></path>
                        <polyline id="Shape" fill="#7DB1A1" points="192.862012 243.686182 216.191428 143.633925 274.137374 156.046377 251.184986 248.952447 192.862012 243.686182"></polyline>
                        <polyline id="Shape" fill="#B3E0D0" points="200.387885 250.921513 223.7173 150.869256 281.663247 163.281708 258.710859 256.187778 200.387885 250.921513"></polyline>
                        <path d="M106.887353,6.2641978 C106.887353,6.2641978 117.220613,15.2891783 117.983698,29.7553262 C118.360725,36.8812017 123.063408,40.286727 123.063408,40.286727 C123.063408,40.286727 122.876023,43.671941 119.865448,44.6119021 C119.865448,44.6119021 122.498996,60.0338087 118.925138,61.3506569 C115.350151,62.6663768 109.33013,65.4873885 109.33013,65.4873885 L108.765717,85.4229138 L120.429861,95.202797 C120.429861,95.202797 85.2477883,113.444587 70.0086578,87.8681667 C70.0086578,87.8681667 82.0498285,82.9776608 82.9901393,79.0282445 C83.9315789,75.0788282 84.3074775,63.2305791 84.3074775,63.2305791 L79.2277673,46.1171939 C79.2277673,46.1171939 86.7536401,17.3428748 86.941025,17.9070772 C87.1295387,18.4712795 106.887353,6.2641978 106.887353,6.2641978" id="Shape" fill="#F9B6A8"></path>
                        <path d="M70.0086578,7.93875033 C70.0086578,7.93875033 63.0471973,-2.59265044 50.8186417,0.604119983 C38.5900862,3.80089041 34.6392005,14.8976219 36.5198221,29.9426414 C38.4015725,44.9876608 32.0045242,73.7619799 32.0045242,73.7619799 L60.7895483,70.5652095 L69.2557319,30.8826025 L70.0086578,7.93875033" id="Shape" fill="#CC395D"></path>
                        <path d="M84.3074775,63.2305791 C84.3074775,63.2305791 92.773661,57.0243534 91.0804243,49.1255208 C91.0804243,49.1255208 79.7921796,43.8592562 84.3074775,37.8414741 C88.8227754,31.823692 95.5957222,42.7308515 95.5957222,42.7308515 C95.5957222,42.7308515 99.7893052,31.8891394 103.686007,28.6257931 C110.646339,22.7964546 113.092502,7.93875033 102.744568,3.42513166 C92.3977625,-1.08848702 63.6127383,-4.47370103 58.7204131,20.3512017 C53.8292166,45.1761044 80.921004,54.5791005 84.3074775,63.2305791" id="Shape" fill="#E73A5E"></path>
                        <path d="M211.300231,165.915404 L212.224738,160.649139 L200.011986,174.189995 L114.221326,231.319995 L89.3758994,164.51054 L42.4416353,184.37949 C53.8258301,212.288322 81.0214694,273.502019 101.051331,274.814353 C127.014294,276.515988 210.924333,182.465715 210.924333,182.465715 L225.599051,179.832019 L235.381444,167.419567 L211.300231,165.915404" id="Shape" fill="#F9B6A8"></path>
                        <path d="M83.7430652,149.365093 L37.0853631,170.767544 C37.0853631,170.767544 39.0698366,176.111669 42.4416353,184.37949 L89.3758994,164.51054 L83.7430652,149.365093" id="Shape" fill="#FFFFFE"></path>
                        <polyline id="Shape" fill="#CC395D" points="114.221326 231.319995 102.933081 238.509062 111.7492 224.671435 114.221326 231.319995"></polyline>
                        <polyline id="Shape" fill="#F9B6A8" points="255.324386 240.390112 257.206136 223.863497 269.999104 221.206104 267.365556 240.390112 255.324386 240.390112"></polyline>
                        <path d="M111.46135,34.3106959 C111.46135,32.8911628 110.309949,31.74019 108.889888,31.74019 C107.469827,31.74019 106.318426,32.8911628 106.318426,34.3106959 C106.318426,35.7302289 107.469827,36.8812017 108.889888,36.8812017 C110.309949,36.8812017 111.46135,35.7302289 111.46135,34.3106959" id="Shape" fill="#3A3B39"></path>
                        <path d="M104.907395,28.8131083 C104.650023,28.8131083 104.394909,28.6957542 104.228972,28.4745869 C103.949023,28.0999566 104.024655,27.5696064 104.399424,27.289762 C106.736091,25.5396064 110.134981,25.5305791 112.480679,27.2717075 C112.856577,27.5504235 112.934466,28.0807737 112.655647,28.4565324 C112.377956,28.8322912 111.847408,28.9112795 111.470381,28.6303068 C109.743279,27.348439 107.139081,27.3540811 105.414238,28.6438476 C105.261846,28.7578165 105.084621,28.8131083 104.907395,28.8131083" id="Shape" fill="#3A3B39"></path>
                        <path d="M93.3595209,46.5606569 C93.2274485,46.5606569 93.0942472,46.5143924 92.9870089,46.4196064 L86.3641957,40.6071939 C86.130529,40.4018243 86.1068237,40.0452484 86.3133986,39.8105402 C86.5188446,39.5769604 86.8744243,39.5543924 87.1092198,39.759762 L93.732033,45.5733029 C93.9668285,45.7786725 93.989405,46.1352484 93.7828301,46.3688282 C93.6722053,46.4952095 93.5164275,46.5606569 93.3595209,46.5606569" id="Shape" fill="#CC395D"></path>
                        <path d="M158.829083,513.76984 L144.688299,542.802564 L181.855973,542.802564 L165.018428,529.001046 C165.018428,529.001046 170.61401,523.247311 179.475283,513.76984 L158.829083,513.76984" id="Shape" fill="#3A3B39"></path>
                        <path d="M205.127819,499.717816 L192.862012,528.285637 L233.499693,528.285637 L213.180853,516.601007 C215.467851,512.118984 219.224579,506.393459 224.004022,499.717816 L205.127819,499.717816" id="Shape" fill="#3A3B39"></path>
                        <path d="M118.824672,53.3265713 C117.158527,53.3265713 115.510444,52.8966492 113.997819,52.0593729 C113.723515,51.9081667 113.625307,51.5651317 113.77544,51.2920577 C113.926703,51.0201122 114.269866,50.9208126 114.543041,51.0720188 C116.226118,52.0029527 118.092065,52.366299 119.936564,52.1259488 C120.235703,52.0830694 120.528068,52.3031083 120.568706,52.6122912 C120.609344,52.9214741 120.390352,53.2047036 120.081054,53.2441978 C119.663389,53.2994896 119.244595,53.3265713 118.824672,53.3265713" id="Shape" fill="#CC395D"></path>
                    </g>
                    <g id="Man-with-table" transform="translate(87.741269, 38.044327)">
                        <path d="M493.877641,14.9310539 C493.877641,14.9310539 485.656412,12.876229 476.749987,22.4642834 C467.843562,32.0523379 463.047187,38.5587192 463.047187,38.5587192 L467.500399,44.0371239 L469.555989,58.7616764 L481.355591,62.8713262 L483.943986,83.4161901 L516.143704,77.2528438 L511.690491,52.2552951 L513.060884,27.9426881 L493.877641,14.9310539" id="Shape" fill="#F9B6A8"></path>
                        <path d="M502.442032,21.7793418 C502.442032,21.7793418 492.165214,21.4374352 488.740361,30.340548 C485.314378,39.2436609 475.380723,53.2821434 467.501528,44.0371239 C467.501528,44.0371239 443.179876,58.8598476 446.605858,72.5564235 C450.030712,86.2541278 462.164446,90.5589916 476.970108,83.0472017 C491.77577,75.5365403 497.646786,40.9554508 497.646786,40.9554508 C497.646786,40.9554508 505.868014,34.1071628 508.607671,39.5855675 C511.348457,45.0639722 500.044409,50.5435052 500.044409,50.5435052 L500.386443,60.1315597 L512.71885,56.7068515 C512.71885,56.7068515 526.420522,24.861015 512.71885,16.3009371 C499.01605,7.73973092 496.276393,-1.50528854 488.740361,0.206501343 C481.2032,1.91829123 475.03756,16.3009371 502.442032,21.7793418" id="Shape" fill="#523B5D"></path>
                        <path d="M466.131135,43.3521823 C466.131135,43.3521823 475.86386,47.2192251 473.410924,66.294906 C473.410924,66.294906 456.539514,52.5972017 466.131135,43.3521823" id="Shape" fill="#3F2C48"></path>
                        <path d="M482.915626,30.5109371 C482.915626,29.0925325 481.765354,27.9426881 480.346422,27.9426881 C478.92749,27.9426881 477.777217,29.0925325 477.777217,30.5109371 C477.777217,31.9293418 478.92749,33.0791862 480.346422,33.0791862 C481.765354,33.0791862 482.915626,31.9293418 482.915626,30.5109371" id="Shape" fill="#3A3B39"></path>
                        <path d="M498.242805,46.5647504 C498.096058,46.5647504 497.949311,46.5083301 497.838686,46.3943613 C497.620823,46.1709371 497.625338,45.8132329 497.848845,45.5965792 C499.840092,43.6579799 502.321248,42.2971239 505.02704,41.6618321 C505.326179,41.5907426 505.633219,41.7791862 505.705464,42.082727 C505.77658,42.3851395 505.588066,42.6898087 505.284412,42.7608982 C502.779551,43.3487971 500.480135,44.6092251 498.636765,46.4045169 C498.52614,46.5117154 498.385037,46.5647504 498.242805,46.5647504" id="Shape" fill="#CC395D"></path>
                        <path d="M486.53238,28.1142056 C486.088752,28.1142056 485.71624,27.7700422 485.688019,27.3220655 C485.62029,26.2726492 484.971216,25.2491862 483.950758,24.5856842 C482.930301,23.9210539 481.730361,23.7416375 480.743768,24.1038554 C480.305784,24.2663457 479.819261,24.0406648 479.65671,23.6017154 C479.496417,23.1627659 479.721053,22.6764235 480.159037,22.5150617 C481.646828,21.9689138 483.410052,22.2126492 484.875266,23.1672796 C486.341609,24.1219099 487.276275,25.6339722 487.37787,27.2137387 C487.407219,27.6808982 487.053897,28.0826103 486.586564,28.1130772 C486.568502,28.1142056 486.550441,28.1142056 486.53238,28.1142056" id="Shape" fill="#3A3B39"></path>
                        <path d="M584.232138,276.951132 L592.001837,278.381949 C580.627802,340.081988 553.058522,365.583933 531.9337,376.114206 C514.921187,384.593038 499.461936,385.025217 492.111031,384.59191 L488.155209,498.169046 C493.862574,497.85745 499.009061,497.950235 502.465738,498.495334 C506.584368,499.144672 511.515368,501.235411 512.664446,504.618379 C519.535744,506.675803 532.872666,509.956251 534.956692,514.110198 C536.916332,518.015606 535.155366,523.633933 531.022739,525.056852 C526.802064,526.510237 521.775409,522.34191 522.425612,517.926462 C522.860209,514.971171 525.699203,512.862182 528.616085,512.567669 L512.273731,508.560186 C510.711046,511.34624 506.58388,512.511807 503.085462,513.059653 C495.126127,514.305708 487.090912,515.322121 479.042654,515.70059 L477.610151,520.63689 C479.402725,518.979264 481.413161,518.909303 483.066889,519.745451 C485.517567,520.984439 487.187098,524.211676 486.21518,527.21549 C483.554541,535.439303 473.714578,530.744011 472.734758,524.353855 C472.636322,523.712464 473.263229,519.074486 474.056852,515.847768 C470.522274,515.892694 466.988089,515.796377 463.459208,515.526346 C460.373002,515.290509 457.018135,515.099809 454.571973,513.277435 C452.836061,511.983951 451.973449,510.755777 451.82659,509.599601 L439.725673,512.567669 C442.642556,512.862182 445.481549,514.971171 445.916147,517.926462 C446.566349,522.34191 441.539694,526.510237 437.319019,525.056852 C433.186393,523.633933 431.425427,518.015606 433.385066,514.110198 C435.553439,509.788128 449.904015,506.411695 456.480335,504.37407 C457.436741,503.906727 458.516878,503.461785 459.697537,503.040678 L459.758921,502.927708 C459.752297,502.962205 459.734582,502.997882 459.706236,503.034729 C465.14367,501.098354 472.726577,499.66332 480.225202,498.829569 L484.519686,375.563544 L488.993217,376.348914 L489.026058,376.354283 C489.92193,376.496527 508.326865,379.205606 528.805728,368.845023 C556.572552,354.797513 575.737734,323.020509 584.232138,276.951132 Z" id="Combined-Shape" fill="#3A3B39"></path>
                        <path d="M538.197548,218.812338 C547.368118,213.303466 558.417052,210.159731 568.156549,209.554906 C582.167519,208.686034 597.118799,213.750315 605.441622,225.049031 C614.888754,237.874478 613.384031,258.46335 607.769258,272.607902 C592.772824,310.38689 525.715006,289.954867 519.357467,254.742999 C516.43494,238.558291 525.521977,226.426813 538.197548,218.812338" id="Shape" fill="#585755"></path>
                        <path d="M430.082126,364.436346 C430.082126,364.436346 448.072201,388.875334 484.758997,390.712377 C521.445792,392.54942 562.154589,380.238525 530.547504,349.771599 C497.043994,317.476657 430.082126,364.436346 430.082126,364.436346" id="Shape" fill="#585755"></path>
                        <path d="M240.104353,189.579887 L272.234084,267.971287 L435.537734,267.971287 L409.763285,255.918797 L370.630327,253.655217 L341.147689,187.44833 C339.349472,183.40977 335.28909,180.857318 330.868614,180.987085 L244.037177,183.531638 C240.972419,183.620781 238.941663,186.744206 240.104353,189.579887" id="Shape" fill="#7DB1A1"></path>
                        <polyline id="Shape" fill="#FFFFFE" points="276.681652 253.655217 363.104454 253.655217 334.330718 189.448992 250.077517 191.384206 276.681652 253.655217"></polyline>
                        <polyline id="Shape" fill="#3A3B39" points="406.266187 490.748836 413.783029 509.414906 395.377546 519.422727 430.363203 518.636229 426.254282 490.748836 406.266187 490.748836"></polyline>
                        <path d="M407.509023,493.643194 C407.509023,493.643194 348.241222,366.32191 347.67681,335.854984 C347.112398,305.388058 404.122549,346.950587 404.122549,346.950587 L426.699039,493.643194 L407.509023,493.643194" id="Shape" fill="#3F2C48"></path>
                        <path d="M530.547504,349.771599 C530.547504,349.771599 479.750403,407.320237 310.426731,335.102338 L352.193237,500.977824 L333.003221,500.977824 C333.003221,500.977824 246.083736,350.900003 270.917874,304.635412 C295.752013,258.37082 440.994472,287.361793 440.994472,287.361793 L530.547504,349.771599" id="Shape" fill="#523B5D"></path>
                        <path d="M530.547504,349.771599 L459.58734,300.319264 L430.084383,285.423194 C430.083254,285.423194 430.082126,285.423194 430.080997,285.423194 L421.615942,287.709342 L504.768539,364.436346 C523.187568,358.093583 530.547504,349.771599 530.547504,349.771599" id="Shape" fill="#3F2C48"></path>
                        <polygon id="Shape" fill="#7DB1A1" points="58.6988728 541.600392 77.8888889 541.600392 77.8888889 278.640353 58.6988728 278.640353"></polygon>
                        <polygon id="Shape" fill="#7DB1A1" points="358.966184 541.600392 378.1562 541.600392 378.1562 278.640353 358.966184 278.640353"></polygon>
                        <polygon id="Shape" fill="#B3E0D0" points="0 287.362922 456.045089 287.362922 456.045089 267.971287 0 267.971287"></polygon>
                        <polyline id="Shape" fill="#F9B6A8" points="341.151076 242.376813 322.149573 237.875606 297.50282 245.033077 297.50282 250.588213 316.069725 250.847746 327.605182 255.917669 341.151076 242.376813"></polyline>
                        <path d="M325.101449,254.581638 L338.647343,241.040781 L430.082126,257.242416 C430.082126,257.242416 442.499195,90.2385247 492.167472,75.569264 C541.835749,60.9000033 574.571659,83.4680967 586.988728,134.246307 C599.405797,185.024517 599.405797,296.736579 530.547504,368.954478 L432.339775,296.736579 C432.339775,296.736579 374.127425,282.475801 325.101449,254.581638" id="Shape" fill="#00AEC8"></path>
                        <polygon id="Shape" fill="#0080A3" points="445.321256 259.499225 430.928744 247.81121 430.082126 257.242416"></polygon>
                        <path d="M514.743961,163.92335 C514.743961,163.92335 497.435696,305.011171 432.339775,296.736579 L451.257744,310.647552 C451.257744,310.647552 513.615137,287.25798 514.743961,163.92335" id="Shape" fill="#0080A3"></path>
                        <polyline id="Shape" fill="#3F2C48" points="310.426731 335.102338 291.236715 327.203505 314.436316 351.027513 310.426731 335.102338"></polyline>
                        <polyline id="Shape" fill="#3A3B39" points="333.003221 500.977824 341.469404 518.468097 324.537037 528.623739 358.966184 528.623739 352.193237 500.977824 333.003221 500.977824"></polyline>
                    </g>
                </g>
            </g>
        </g>
    </g>
</svg>